<?xml version="1.0" standalone="no"?>
<!DOCTYPE svg PUBLIC "-//W3C//DTD SVG 20010904//EN"
 "http://www.w3.org/TR/2001/REC-SVG-20010904/DTD/svg10.dtd">

<svg version="1.0" xmlns="http://www.w3.org/2000/svg"
 width="50.000000pt" height="50.000000pt" viewBox="0 0 50.000000 50.000000"
 preserveAspectRatio="xMidYMid meet">
<metadata>
Created by potrace 1.16, written by Peter Selinger 2001-2019
</metadata>
<g transform="translate(0.000000,50.000000) scale(0.100000,-0.100000)"
fill="black" stroke="none">
<path d="M0 250 l0 -250 250 0 250 0 0 250 0 250 -250 0 -250 0 0 -250z m224
123 c3 -21 6 -52 6 -70 0 -64 18 -41 25 32 l7 75 59 0 60 0 -3 -142 -3 -143
-37 -3 -38 -3 -1 78 c-1 69 -2 73 -10 38 -4 -22 -11 -57 -14 -77 -5 -34 -9
-38 -35 -38 -26 0 -30 4 -35 37 -3 21 -10 56 -14 78 -8 35 -9 31 -10 -38 l-1
-78 -35 3 c-20 2 -35 6 -35 11 0 4 0 68 0 142 l0 135 54 0 53 0 7 -37z" stroke="white" stroke-width="3px"/>
</g>
</svg>
