<?xml version="1.0" standalone="no"?>
<!DOCTYPE svg PUBLIC "-//W3C//DTD SVG 20010904//EN"
 "http://www.w3.org/TR/2001/REC-SVG-20010904/DTD/svg10.dtd">
<svg version="1.0" xmlns="http://www.w3.org/2000/svg"
 width="40.000000pt" height="40.000000pt" viewBox="0 0 40.000000 40.000000"
 preserveAspectRatio="xMidYMid meet">
<metadata>
Created by potrace 1.16, written by Peter Selinger 2001-2019
</metadata>
<g transform="translate(0.000000,40.000000) scale(0.100000,-0.100000)"
fill="#000000" stroke="none">
<path d="M0 200 l0 -200 200 0 200 0 0 200 0 200 -200 0 -200 0 0 -200z m184
123 c3 -10 8 -45 12 -78 l8 -60 11 75 10 75 53 3 52 3 0 -135 0 -136 -35 0
-35 0 -1 73 -1 72 -10 -50 c-18 -99 -16 -95 -47 -95 -28 0 -30 2 -39 63 l-9
62 -2 -62 -1 -63 -35 0 -35 0 0 135 0 135 49 0 c39 0 51 -4 55 -17z"/>
</g>
</svg>
